<?xml version="1.0" encoding="UTF-8"?>
<svg id="Layer_1" data-name="Layer 1" xmlns="http://www.w3.org/2000/svg" xmlns:xlink="http://www.w3.org/1999/xlink" viewBox="0 0 768.19 648.69">
  <defs>
    <style>
      .cls-1, .cls-2, .cls-3, .cls-4 {
        fill: none;
      }

      .cls-5 {
        clip-path: url(#clippath);
      }

      .cls-6 {
        fill: #eb9847;
      }

      .cls-6, .cls-7, .cls-2 {
        stroke-width: 2px;
      }

      .cls-6, .cls-7, .cls-2, .cls-3, .cls-4 {
        stroke: #ea9748;
        stroke-miterlimit: 10;
      }

      .cls-7 {
        fill: #eb9848;
      }

      .cls-8 {
        clip-path: url(#clippath-1);
      }

      .cls-9 {
        opacity: .86;
      }

      .cls-3 {
        stroke-width: 4.27px;
      }

      .cls-4 {
        stroke-width: 4.8px;
      }
    </style>
    <clipPath id="clippath">
      <rect class="cls-1" x="1310.6" y="-433.18" width="779.24" height="1167.43"/>
    </clipPath>
    <clipPath id="clippath-1">
      <rect class="cls-1" x="1310.6" y="-433.18" width="780.9" height="1167.43"/>
    </clipPath>
  </defs>
  <g>
    <path class="cls-6" d="M466.84,419.45c-4.46-2.81-5.81-8.72-3-13.18l70.01-111.3,2.05,1.29-70.01,111.3c-2.09,3.33-1.09,7.74,2.24,9.83,3.33,2.09,7.74,1.09,9.83-2.24l70.01-111.3,2.05,1.29-70.01,111.3c-2.81,4.46-8.72,5.81-13.18,3Z"/>
    <path class="cls-7" d="M546.24,293.22c-9.89-6.22-10.19-23.58-.68-38.69,9.51-15.12,25.29-22.36,35.17-16.14,9.88,6.22,10.19,23.58,.68,38.69-9.51,15.12-25.29,22.36-35.17,16.14Zm33.35-53.01c-8.88-5.59-23.33,1.35-32.21,15.46-8.88,14.11-8.87,30.14,0,35.73,8.88,5.59,23.33-1.35,32.21-15.46,8.88-14.11,8.87-30.14,0-35.73Z"/>
    <path class="cls-6" d="M548.78,305.69l.43-2.39c13.11,2.36,29.02-6.74,38.7-22.13,12-19.08,10.81-41.51-2.66-49.98-13.47-8.47-34.2,.16-46.2,19.24-9.68,15.39-11,33.67-3.2,44.46l-1.97,1.42c-8.37-11.57-7.09-30.97,3.11-47.18,12.72-20.22,34.95-29.19,49.55-20.01,14.61,9.19,16.14,33.11,3.42,53.33-10.19,16.21-27.13,25.76-41.19,23.22Z"/>
  </g>
  <g class="cls-5">
    <g class="cls-8">
      <image class="cls-9" width="2048" height="1365" transform="translate(194.59 -867.4) scale(1.32)" xlink:href="S__47693865.jpg"/>
    </g>
  </g>
  <g>
    <path class="cls-2" d="M212.11,313.23c-11.22,3.91-23.46-1.68-27.89-12.72l-19.11-47.69c-1.56-3.89,.34-8.31,4.22-9.87,1.89-.76,3.95-.73,5.81,.07,1.86,.79,3.3,2.26,4.06,4.15l16.16,40.33,4.35-1.74-16.16-40.33c-1.56-3.89,.34-8.31,4.22-9.87,1.88-.75,3.95-.73,5.82,.07,1.86,.79,3.31,2.26,4.06,4.15l16.16,40.33,4.35-1.74-16.16-40.33c-1.56-3.89,.34-8.31,4.22-9.87,1.88-.75,3.95-.73,5.82,.07,1.86,.8,3.3,2.27,4.05,4.15l19.11,47.69c4.07,10.17,.02,21.96-9.43,27.44l-1.07-1.84c8.54-4.95,12.21-15.62,8.52-24.81l-19.11-47.69c-.54-1.36-1.58-2.42-2.92-2.99-1.35-.58-2.83-.59-4.19-.05-2.8,1.12-4.16,4.31-3.04,7.11l16.95,42.3-8.3,3.32-16.95-42.3c-.54-1.36-1.58-2.42-2.92-2.98-1.35-.58-2.84-.6-4.19-.05-2.8,1.12-4.16,4.31-3.04,7.11l16.95,42.3-8.3,3.32-16.95-42.3c-.54-1.36-1.58-2.42-2.92-2.98-1.35-.58-2.83-.6-4.18-.06-2.8,1.12-4.16,4.31-3.04,7.11l19.11,47.69c4,9.98,15.07,15.03,25.21,11.5l.7,2.01Z"/>
    <path class="cls-2" d="M263,420.46c-4.28,1.72-9.17-.38-10.89-4.66l-41.34-103.18,1.97-.79,41.34,103.18c1.28,3.2,4.92,4.76,8.12,3.48s4.75-4.92,3.47-8.12l-41.42-103.37,1.97-.79,41.42,103.37c1.72,4.29-.37,9.17-4.65,10.89Z"/>
  </g>
  <path class="cls-4" d="M350.89,212.03c-7.18,5.93-9.47,14.96-6.2,21.41,2.56,5.06,7.73,6.95,9.33,7.46"/>
  <path class="cls-4" d="M331.86,218.79c-5.29,5.49-7.42,12.66-5.23,18.54,1.02,2.73,2.77,4.67,4.28,5.94"/>
  <path class="cls-4" d="M317.36,218.55c-5.72,4.35-8.53,11.14-7.13,17.35,1.12,4.99,4.58,7.98,5.94,9.03"/>
  <path class="cls-4" d="M371.9,221.64c-.79,.85-6.29,6.98-4.99,15.21,1.07,6.77,6.03,10.56,8.08,12.12,5.5,4.2,11.33,4.68,13.55,4.75"/>
  <path class="cls-4" d="M388.09,256.88c4.05-5.75,10.1-8.64,14.74-7.13,6.75,2.19,7.75,10.93,7.84,11.89,.15,1.51,.68,6.84-2.61,9.98-3.91,3.73-9.22,.62-12.6,4.28-1.93,2.09-.44,4-1.9,9.03,0,0-1.22,4.19-5.09,9.21-7.15,9.26-45.53,21.65-66.16,1.78-8.61-8.29-11.08-19.25-12.73-26.56-2.92-12.94-1.38-23.87,0-30.12"/>
  <path class="cls-4" d="M317.04,330.84c-12.52-15.74-14.85-28.27-14.7-36.76,.2-11.66,5.19-21,1.81-37.53-1.44-7.05-2.62-6.24-3.77-12.67-1.02-5.74-3.22-23.1,6.85-40.4,2.7-4.65,14.02-24.42,30.81-25.34,8.49-.46,10.41,4.33,24.93,6.7,13.82,2.26,17.46-1.21,25.13,.02,24.17,3.86,41.3,46.66,45.46,78.53,2.64,20.19-1.5,23.52,3.47,41.48,5.96,21.52,18.19,39.18,21.64,44.09,13.83,19.69,16.97,23.13,19.35,27.1,.66,1.11,1.14,2.06,1.47,2.69"/>
  <path class="cls-4" d="M393.17,297.99c-1.22,5.4-2.33,13.98,0,23.89,1.06,4.45,1.44,7,3.29,9.66,.95,1.36,4.07,4.67,25.42,9.91,1.62,.4,2.97,.71,3.91,.93"/>
  <path class="cls-4" d="M350.44,310.94c1.44,4.09,2.65,9.82,0,14.52-1.73,3.09-4.48,4.58-8.43,5.82-2.4,.75-5.23,1.41-8.55,2.27-2.37,.61-4.96,1.34-7.8,2.27-11.19,3.65-21.75,7.07-29.1,15.25-3.17,3.49-3.39,5.28-10.75,31.15-2.14,7.58-10.17,35.88-5.95,37.74,.1,.03,1.31,.32,3.74,.58,.96,.1,2.24,.29,4,.67,.7,.13,1.44,.29,2.3,.54,2.53,.64,4.38,1.34,5.4,1.76,7.2,2.85,8.12,4.45,10.07,4.09,2.11-.42,3.33-2.75,4.67-6.46,0,0,0-.04,0-.04,.58-10.4,2.26-20.91,5.15-31.5"/>
  <line class="cls-4" x1="455.37" y1="443.75" x2="455.37" y2="443.72"/>
  <path class="cls-4" d="M372.68,261.57c-1.41-4.56-5.56-7.72-10.24-7.83-4.96-.12-9.47,3.23-10.84,8.13"/>
  <path class="cls-4" d="M334.7,261.82c-1.41-4.56-5.56-7.72-10.24-7.83-4.96-.12-9.47,3.23-10.84,8.13"/>
  <path class="cls-4" d="M364.25,279.28c-.86,.81-13.52,12.5-25.89,8.13-1.72-.61-3.84-1.67-6.02-3.61"/>
  <path class="cls-4" d="M342.78,264.86c-2.85,3.65-3.3,7.36-1.81,8.85,.28,.28,1,.85,2.61,.8"/>
  <path class="cls-3" d="M212.76,352.93c2.39-6.21,4.78-12.41,7.18-18.62-.86-.25-5.33-1.44-9.77,2.02-4.56,3.56-5.66,9.36-5.84,10.39"/>
  <path class="cls-3" d="M220.63,358.85c-.61,2.53-1.4,4.57-2.08,6.14,5.2,15.45,15.02,36.78,33.06,50.05,5.15,3.79,18.97,13.01,31.59,8.41,1.91-.69,3.39-1.56,4.4-2.24"/>
  <path class="cls-3" d="M220.63,358.85c.7-1.21,5.63-10.03,3.08-18.47-.5-1.64-1.46-4.81-3.76-6.06-3.08-1.67-5.42,1.79-8.5,.19-3.04-1.58-2.81-6.2-4.73-6.61-3.58-.77-8.61,5.6-10.86,16.95"/>
  <path class="cls-3" d="M202.79,327.42c-2.75-2.82-4.85-3.07-6.13-2.89-5.92,.86-9.3,13.26-10.05,21.23-.66,7.04,.39,14.41,5.17,26.54,7.64,19.38,17.29,31.78,19.89,35.06,19.93,25.21,38.91,49.39,62.08,51.71,5.95,.6,17.93,.33,33.71-10.99"/>
  <g>
    <path class="cls-3" d="M531.26,356.39c-2.39-6.21-4.78-12.41-7.18-18.62,.86-.25,5.33-1.44,9.77,2.02,4.56,3.56,5.66,9.36,5.84,10.39"/>
    <path class="cls-3" d="M523.39,362.3c.61,2.53,1.4,4.57,2.08,6.14-5.2,15.45-15.02,36.78-33.06,50.05-4.85,3.58-23.01,16.98-31.59,8.41-1.93-1.92-2.92-4.51-3.48-6.56"/>
    <path class="cls-3" d="M523.39,362.3c-.7-1.21-5.63-10.03-3.08-18.47,.5-1.64,1.46-4.81,3.76-6.06,3.08-1.67,5.42,1.79,8.5,.19,3.04-1.58,2.81-6.2,4.73-6.61,3.58-.77,8.61,5.6,10.86,16.95"/>
    <path class="cls-3" d="M541.22,330.88c2.75-2.82,4.85-3.07,6.13-2.89,5.92,.86,9.3,13.26,10.05,21.23,.66,7.04-.39,14.41-5.17,26.54-7.64,19.38-17.29,31.78-19.89,35.06-25.42,32.15-39.99,50.58-62.08,51.71-5.89,.3-15.52-.46-27.41-7.55"/>
  </g>
  <path class="cls-4" d="M404.34,335.82c.92,.24,2.14,.56,3.57,.97,1.34,.39,2.75,.82,4.23,1.3,11.19,3.65,21.75,7.07,29.1,15.25,3.17,3.49,3.39,5.28,10.75,31.15,2.14,7.58,10.17,35.88,5.95,37.74-.1,.03-1.31,.32-3.74,.58-.96,.1-2.24,.29-4,.67-.7,.13-1.44,.29-2.3,.54-1.12,.33-4.71,1.5-5.4,1.76-4.22,1.57-12.29,10.75-15.46,10.23-6.8-1.1-4.78-44.16-4.44-44.15,.34,0-.46,41.15-1.27,64.54-.48,13.78-1.56,38.74-1.56,38.74h0s-16,4.66-34.76,4.67h-.1c-16.29,0-27.1-.57-33.9-.83-2.74-.1-43.98-1.64-44.42-4.25-.02-.14-.04-.87-.27-1.8-.07-.28-.24-.92-.24-1.78,0-.02,0-.02,0-.03,0-1.63-.5-3.79-.5-3.79s-.06-.24-.43-3.69c-.78-7.21,4.9-62.39,4.89-62.49,0,0,0-.02,0-.04,0-.05,.03-.08,.03-.09,.02-.05,2.01-12.26,5.12-31.42"/>
  <path class="cls-4" d="M337.2,332.6c2.77,4.4,8.96,12.72,19.82,17.07,16.26,6.5,36.21,1.39,50.89-12.88"/>
</svg>